<?xml version="1.0" encoding="UTF-8"?>
<svg width="208px" height="49px" viewBox="0 0 208 49" version="1.1" xmlns="http://www.w3.org/2000/svg" xmlns:xlink="http://www.w3.org/1999/xlink">
    <!-- Generator: Sketch 53 (72520) - https://sketchapp.com -->
    <title>Logo</title>
    <desc>Created with Sketch.</desc>
    <defs>
        <path d="M79.4001892,17.3333333 C81.3803316,17.3333333 83.1047703,17.6666633 84.5735572,18.3333333 C86.0423441,19.0000033 87.1683972,19.9555493 87.9517502,21.2 C88.7351033,22.4444507 89.1267739,23.9222137 89.1267739,25.6333333 C89.1267739,27.3222307 88.7351033,28.7944382 87.9517502,30.05 C87.1683972,31.3055618 86.0423441,32.2666633 84.5735572,32.9333333 C83.1047703,33.6000033 81.3803316,33.9333333 79.4001892,33.9333333 L74.243141,33.9333333 L74.243141,40.6666667 L70,40.6666667 L70,17.3333333 L79.4001892,17.3333333 Z M79.2043519,30.2666667 C81.0539355,30.2666667 82.4574219,29.8666707 83.4148534,29.0666667 C84.3722848,28.2666627 84.8509934,27.1222297 84.8509934,25.6333333 C84.8509934,24.144437 84.3722848,23.000004 83.4148534,22.2 C82.4574219,21.399996 81.0539355,21 79.2043519,21 L74.243141,21 L74.243141,30.2666667 L79.2043519,30.2666667 Z M107.045885,35.2666667 L95.6220435,35.2666667 L93.3699149,40.6666667 L88.9962157,40.6666667 L99.2776727,17.3333333 L103.455535,17.3333333 L113.769631,40.6666667 L109.330653,40.6666667 L107.045885,35.2666667 Z M105.642384,31.8666667 L101.333964,21.6666667 L97.0581835,31.8666667 L105.642384,31.8666667 Z M131.623463,40.6666667 L126.956008,33.8333333 C126.760169,33.8555557 126.466416,33.8666667 126.07474,33.8666667 L120.917692,33.8666667 L120.917692,40.6666667 L116.674551,40.6666667 L116.674551,17.3333333 L126.07474,17.3333333 C128.054882,17.3333333 129.779321,17.6666633 131.248108,18.3333333 C132.716895,19.0000033 133.842948,19.9555493 134.626301,21.2 C135.409654,22.4444507 135.801325,23.9222137 135.801325,25.6333333 C135.801325,27.3888977 135.382455,28.8999937 134.544702,30.1666667 C133.706949,31.4333397 132.504738,32.3777747 130.938032,33 L136.192999,40.6666667 L131.623463,40.6666667 Z M131.525544,25.6333333 C131.525544,24.144437 131.046835,23.000004 130.089404,22.2 C129.131973,21.399996 127.728486,21 125.878903,21 L120.917692,21 L120.917692,30.3 L125.878903,30.3 C127.728486,30.3 129.131973,29.8944485 130.089404,29.0833333 C131.046835,28.2722182 131.525544,27.1222297 131.525544,25.6333333 Z M155.482971,40.6666667 L150.815516,33.8333333 C150.619677,33.8555557 150.325924,33.8666667 149.934248,33.8666667 L144.7772,33.8666667 L144.7772,40.6666667 L140.534059,40.6666667 L140.534059,17.3333333 L149.934248,17.3333333 C151.91439,17.3333333 153.638829,17.6666633 155.107616,18.3333333 C156.576403,19.0000033 157.702456,19.9555493 158.485809,21.2 C159.269162,22.4444507 159.660833,23.9222137 159.660833,25.6333333 C159.660833,27.3888977 159.241963,28.8999937 158.40421,30.1666667 C157.566457,31.4333397 156.364246,32.3777747 154.79754,33 L160.052507,40.6666667 L155.482971,40.6666667 Z M155.385052,25.6333333 C155.385052,24.144437 154.906343,23.000004 153.948912,22.2 C152.991481,21.399996 151.587994,21 149.738411,21 L144.7772,21 L144.7772,30.3 L149.738411,30.3 C151.587994,30.3 152.991481,29.8944485 153.948912,29.0833333 C154.906343,28.2722182 155.385052,27.1222297 155.385052,25.6333333 Z M175.066698,41 C172.738399,41 170.638609,40.4833385 168.767266,39.45 C166.895923,38.4166615 165.427158,36.9833425 164.360927,35.15 C163.294697,33.3166575 162.761589,31.266678 162.761589,29 C162.761589,26.733322 163.294697,24.6833425 164.360927,22.85 C165.427158,21.0166575 166.895923,19.5833385 168.767266,18.55 C170.638609,17.5166615 172.738399,17 175.066698,17 C177.394997,17 179.494787,17.5166615 181.366131,18.55 C183.237474,19.5833385 184.706239,21.011102 185.772469,22.8333333 C186.8387,24.6555647 187.371807,26.7110997 187.371807,29 C187.371807,31.2889003 186.8387,33.3444353 185.772469,35.1666667 C184.706239,36.988898 183.237474,38.4166615 181.366131,39.45 C179.494787,40.4833385 177.394997,41 175.066698,41 Z M175.066698,37.2 C176.589885,37.2 177.960732,36.8500035 179.179281,36.15 C180.39783,35.4499965 181.355247,34.4722285 182.051561,33.2166667 C182.747875,31.9611048 183.096026,30.5555633 183.096026,29 C183.096026,27.4444367 182.747875,26.0388952 182.051561,24.7833333 C181.355247,23.5277715 180.39783,22.5500035 179.179281,21.85 C177.960732,21.1499965 176.589885,20.8 175.066698,20.8 C173.543512,20.8 172.172665,21.1499965 170.954115,21.85 C169.735566,22.5500035 168.778149,23.5277715 168.081835,24.7833333 C167.385522,26.0388952 167.03737,27.4444367 167.03737,29 C167.03737,30.5555633 167.385522,31.9611048 168.081835,33.2166667 C168.778149,34.4722285 169.735566,35.4499965 170.954115,36.15 C172.172665,36.8500035 173.543512,37.2 175.066698,37.2 Z M196.184484,21 L188.61211,21 L188.61211,17.3333333 L208,17.3333333 L208,21 L200.427625,21 L200.427625,40.6666667 L196.184484,40.6666667 L196.184484,21 Z" id="path-1"></path>
    </defs>
    <g id="Page-1" stroke="none" stroke-width="1" fill="none" fill-rule="evenodd">
        <g id="Desktop-HD" transform="translate(-52.000000, -130.000000)">
            <g id="Parrot" transform="translate(5.000000, 5.000000)">
                <g id="Logo" transform="translate(47.000000, 125.000000)">
                    <polygon id="Path" fill-opacity="0.25" fill="#FFFFFF" points="38.5 5 59 19.5145931 51.1689835 43 25.8293692 43 18 19.5145931"></polygon>
                    <polygon id="Path" fill-opacity="0.45" fill="#FFFFFF" points="27.5 0 48 14.5145931 40.1689835 38 14.8293692 38 7 14.5162028"></polygon>
                    <polygon id="Path" fill-opacity="0.85" fill="#FFFFFF" points="20.5 11 41 25.5145931 33.1706308 49 7.83101647 49 0 25.5162028"></polygon>
                    <g id="PARROT" fill-rule="nonzero">
                        <use fill="#000000" xlink:href="#path-1"></use>
                        <use fill="#FFFFFF" xlink:href="#path-1"></use>
                    </g>
                </g>
            </g>
        </g>
    </g>
</svg>