<?xml version="1.0" encoding="UTF-8"?>
<svg width="751px" height="135px" viewBox="0 0 751 135" version="1.1" xmlns="http://www.w3.org/2000/svg" xmlns:xlink="http://www.w3.org/1999/xlink">
    <!-- Generator: Sketch 63.1 (92452) - https://sketch.com -->
    <title>Group</title>
    <desc>Created with Sketch.</desc>
    <g id="Page-1" stroke="none" stroke-width="1" fill="none" fill-rule="evenodd">
        <g id="Group" transform="translate(0.000000, 0.120000)" fill-rule="nonzero">
            <path d="M566.014,29.133 L625.795,29.133 C625.795,33.0205324 622.643532,36.172 618.756,36.172 L558.976,36.172 C558.976,32.2848581 562.126858,29.1335522 566.014,29.133 L566.014,29.133 Z" id="Path_1" fill="#3C3C3C"></path>
            <path d="M639.646,55.462 L619.194,55.462 C619.194,51.5744676 622.345468,48.423 626.233,48.423 L646.685,48.423 C646.684448,52.3103036 643.533304,55.4614479 639.646,55.462 Z" id="Path_2" fill="#3C3C3C"></path>
            <path d="M677.468,55.462 L657.016,55.462 C657.016,51.5744676 660.167468,48.423 664.055,48.423 L684.507,48.423 C684.506448,52.3103036 681.355304,55.4614479 677.468,55.462 Z" id="Path_3" fill="#3C3C3C"></path>
            <path d="M36.022,37.369 L0,37.369 L0,28.418 L44.976,28.418 C44.9743435,33.361986 40.9659863,37.369 36.022,37.369 L36.022,37.369 Z" id="Path_4" fill="#3C3C3C"></path>
            <path d="M159.731,120.543 L99.95,120.543 C99.95,116.655468 103.101468,113.504 106.989,113.504 L166.77,113.504 C166.77,115.370859 166.028393,117.161256 164.708325,118.481325 C163.388256,119.801393 161.597859,120.543 159.731,120.543 L159.731,120.543 Z" id="Path_5" fill="#3C3C3C"></path>
            <path d="M88.528,41.8450001 L22.488,41.8450001 C22.488,39.4703435 23.431397,37.1929614 25.1106265,35.5139194 C26.789856,33.8348775 29.0673435,32.8917348 31.442,32.8919999 L97.482,32.8919999 C97.482,35.2666565 96.538603,37.5440386 94.8593735,39.2230806 C93.180144,40.9021225 90.9026565,41.8452652 88.528,41.8450001 L88.528,41.8450001 Z" id="Path_6" fill="#3C3C3C"></path>
            <path d="M750.976,101.44 L657.695,101.44 C657.695,98.563701 660.026701,96.232 662.903,96.232 L750.976,96.232 L750.976,101.44 Z" id="Path_7" fill="#3C3C3C"></path>
            <path d="M631.002,114.518 L653.402,114.518 C653.402,117.393908 651.070908,119.725448 648.195,119.726 L625.795,119.726 C625.795,116.850092 628.126092,114.518552 631.002,114.518 Z" id="Path_8" fill="#3C3C3C"></path>
            <path d="M114.258,111.127 L93.807,111.127 C93.807,107.24002 96.9580199,104.089 100.845,104.089 L121.297,104.089 C121.297,105.955767 120.555361,107.746061 119.235264,109.065971 C117.915167,110.385881 116.124767,111.127265 114.258,111.127 L114.258,111.127 Z" id="Path_9" fill="#3C3C3C"></path>
            <path d="M303.62,15.299 L183.076,15.299 C183.076,12.8269735 185.079973,10.823 187.552,10.823 L308.097,10.823 C308.097,13.2951883 306.092188,15.299 303.62,15.299 L303.62,15.299 Z" id="Path_10" fill="#3C3C3C"></path>
            <path d="M561.404,20.386 L440.857,20.386 C440.857,17.9134212 442.861421,15.909 445.334,15.909 L565.881,15.909 C565.881,18.3815788 563.876579,20.386 561.404,20.386 L561.404,20.386 Z" id="Path_11" fill="#141414"></path>
            <path d="M168.399,15.299 L117.894,15.299 C117.894,14.1117177 118.365714,12.973078 119.205344,12.1336364 C120.044973,11.2941949 121.183718,10.8227347 122.371,10.8229999 L172.871,10.8229999 C172.87045,13.2932371 170.869236,15.2962413 168.399,15.299 L168.399,15.299 Z" id="Path_12" fill="#3C3C3C"></path>
            <path d="M260.849,34.447 L290.505,34.447 L290.505,35.712 C290.505,38.425375 288.305375,40.625 285.592,40.625 L255.936,40.625 L255.936,39.36 C255.936,36.646625 258.135625,34.447 260.849,34.447 Z" id="Rectangle_2" fill="#00D5DA"></path>
            <polygon id="Path_17" fill="#FF2250" points="262.257 88.458 262.257 69.258 210.276 104.447 201.222 104.447 201.222 110.576 239.798 110.576 239.798 134.018 262.261 134.018 262.261 110.576 276.431 110.576 276.431 88.458"></polygon>
            <path d="M221.206,6.642 L181.998,60.399 L201.212,60.399 C201.214654,62.7455218 200.284567,64.9968885 198.626544,66.6573497 C196.968521,68.317811 194.718523,69.2512054 192.372,69.252 L175.547,69.252 L166.77,81.286 L168.845,104.449 L210.191,104.449 L242.911,82.33 L242.936,82.317 L255.936,73.528 L255.936,6.642 L221.206,6.642 Z M192.523,82.33 L233.467,26.347 L233.467,82.33 L192.523,82.33 Z" id="Path_18" fill="#FF2250"></path>
            <polygon id="Path_19" fill="#FFFFFF" points="271.727 88.458 271.727 73.253 216.59 110.577 249.264 110.577 249.242 134.022 271.726 134.022 271.726 110.576 285.896 110.576 285.896 88.458"></polygon>
            <path d="M260.968,48.328 L265.407,48.328 L265.407,6.642 L230.676,6.642 L191.468,60.399 L201.213,60.399 C201.215654,62.7455218 200.285567,64.9968885 198.627544,66.6573497 C196.969521,68.317811 194.719523,69.2512054 192.373,69.252 L185.016,69.252 L176.239,81.286 L178.314,104.449 L210.266,104.449 L242.936,82.33 L201.992,82.33 L233.467,39.299 L242.936,26.347 L242.936,82.33 L255.936,73.53 L265.405,67.13 L265.405,53.36 L255.936,53.36 C255.934938,52.0251052 256.464752,50.744579 257.408666,49.8006655 C258.352579,48.8567521 259.633105,48.3269376 260.968,48.328 Z" id="Path_20" fill="#FFFFFF"></path>
            <rect id="Rectangle_3" fill="#00D5DA" x="285.897" y="88.458" width="9.405" height="22.118"></rect>
            <rect id="Rectangle_4" fill="#00D5DA" x="265.407" y="6.642" width="9.406" height="41.686"></rect>
            <polygon id="Path_21" fill="#00D5DA" points="265.407 53.357 274.813 53.357 274.813 60.751 265.407 67.126"></polygon>
            <polygon id="Path_22" fill="#00D5DA" points="271.727 73.253 281.136 66.337 281.136 88.455 271.736 88.455"></polygon>
            <path d="M152.947,60.403 L167.059,60.403 L167.059,62.215 C167.059,66.1025324 163.907532,69.254 160.02,69.254 L145.909,69.254 L145.909,67.441 C145.909,63.5540199 149.06002,60.403 152.947,60.403 Z" id="Rectangle_5" fill="#FF2250"></path>
            <path d="M255.16,28.574 L282.69,28.574 L282.69,30.386 C282.69,32.2529402 281.948744,34.0434915 280.628618,35.3636176 C279.308492,36.6837437 277.51794,37.4252653 275.651,37.4250001 L248.121,37.4250001 L248.121,35.613 C248.121,31.7254676 251.272468,28.574 255.16,28.574 Z" id="Rectangle_6" fill="#FFFFFF"></path>
            <path d="M183.575,43.298 L196.237,43.298 L196.237,44.328 C196.237,46.537139 194.446139,48.328 192.237,48.328 L179.575,48.328 L179.575,47.298 C179.575,45.088861 181.365861,43.298 183.575,43.298 Z" id="Rectangle_7" fill="#FF2250"></path>
            <path d="M281.929,99.123 L307.166,99.123 L307.166,100.153 C307.166,102.362139 305.375139,104.153 303.166,104.153 L277.929,104.153 L277.929,103.123 C277.929,100.913861 279.719861,99.123 281.929,99.123 Z" id="Rectangle_8" fill="#FFFFFF"></path>
            <path d="M204.453,73.253 L217.115,73.253 L217.115,74.283 C217.115,76.492139 215.324139,78.283 213.115,78.283 L200.453,78.283 L200.453,77.253 C200.453,75.043861 202.243861,73.253 204.453,73.253 Z" id="Rectangle_9" fill="#FFFFFF"></path>
            <path d="M220.59,64.608 L226.964,64.608 L226.964,65.638 C226.964,67.847139 225.173139,69.638 222.964,69.638 L216.59,69.638 L216.59,68.608 C216.59,66.398861 218.380861,64.608 220.59,64.608 Z" id="Rectangle_10" fill="#FF2250"></path>
            <path d="M279.948,115.603 L286.322,115.603 L286.322,116.633 C286.322,118.842139 284.531139,120.633 282.322,120.633 L275.948,120.633 L275.948,119.603 C275.948,117.393861 277.738861,115.603 279.948,115.603 Z" id="Rectangle_11" fill="#00D5DA"></path>
            <path d="M224.823,120.633 L243.229,120.633 L243.229,125.663 L220.823,125.663 L220.823,124.633 C220.823,122.423861 222.613861,120.633 224.823,120.633 Z" id="Rectangle_12" fill="#FF2250"></path>
            <path d="M274.047,79.239 L291.331,79.239 L291.331,80.183 C291.331,81.1555489 290.944656,82.0882647 290.256961,82.7759606 C289.569265,83.4636565 288.636549,83.85 287.664,83.85 L274.047,83.85 L274.047,79.239 Z" id="Rectangle_13" fill="#00D5DA"></path>
            <path d="M224.059,82.339 L248.138,82.339 L248.138,83.659 C248.138,85.0190302 247.59773,86.323357 246.636044,87.2850436 C245.674357,88.2467301 244.37003,88.787 243.01,88.787 L224.059,88.787 L224.059,82.339 Z" id="Rectangle_14" fill="#FFFFFF"></path>
            <path d="M221.777,11.86 L240.61,11.86 L240.61,12.76 C240.61,14.6929966 239.042997,16.26 237.11,16.26 L221.777,16.26 L221.777,11.86 Z" id="Rectangle_15" fill="#FF2250"></path>
            <path d="M161.073,88.455 L187.905,88.455 L187.905,92.655 L164.412,92.655 C163.526269,92.655 162.67683,92.3030763 162.050617,91.676676 C161.424404,91.0502757 161.073,90.2007311 161.073,89.315 L161.073,88.455 Z" id="Rectangle_16" fill="#FFFFFF"></path>
            <rect id="Rectangle_17" fill="#00D5DA" x="302.591" y="108.289" width="4.575" height="4.575"></rect>
            <rect id="Rectangle_18" fill="#FF2250" x="211.354" y="-4.4408921e-16" width="4.575" height="4.575"></rect>
            <path d="M299.439,73.253 L329.907,73.253 L329.907,74.318 C329.905896,76.6020209 328.054021,78.453 325.77,78.453 L295.302,78.453 L295.302,77.39 C295.302,75.105198 297.154198,73.253 299.439,73.253 Z" id="Rectangle_19" fill="#FF2250"></path>
            <path d="M378.267,5.394 L428.653,5.394 L428.653,6.424 C428.653,8.633139 426.862139,10.424 424.653,10.424 L374.267,10.424 L374.267,9.394 C374.267,7.184861 376.057861,5.394 378.267,5.394 Z" id="Rectangle_20" fill="#00D5DA"></path>
            <path d="M331.839,118.118 L344.501,118.118 L344.501,119.148 C344.501,121.357139 342.710139,123.148 340.501,123.148 L327.839,123.148 L327.839,122.118 C327.839,119.908861 329.629861,118.118 331.839,118.118 Z" id="Rectangle_21" fill="#FF2250"></path>
            <path d="M389.222,90.554 L416.752,90.554 L416.752,92.366 C416.752,94.2328589 416.010393,96.0232561 414.690325,97.3433246 C413.370256,98.6633932 411.579859,99.405 409.713,99.405 L382.183,99.405 L382.183,97.593 C382.183,93.7054676 385.334468,90.554 389.222,90.554 Z" id="Rectangle_22" fill="#FF2250"></path>
            <path d="M425.036,61.757 L425.036,79.211 C425.036,113.101 401.584,131.083 376.711,133.111 C355.311,134.872 332.875,124.799 323.494,102.869 L342.91,89.728 C343.379123,91.4861418 343.993227,93.2023554 344.746,94.859 C350.732,108.012 364.262,113.659 376.711,111.759 C389.538,109.835 401.22,99.914 402.301,82.007 L415.153,82.007 C417.583053,82.007 419.553,80.0370529 419.553,77.607 L419.553,76.475 L402.402,76.475 L402.402,61.757 C402.434558,57.9530231 401.904837,54.1651129 400.83,50.516 L420.17,37.425 C420.911275,39.0732342 421.561912,40.7607509 422.119,42.48 C424.107202,48.7103761 425.091834,55.21732 425.036,61.757 L425.036,61.757 Z" id="Path_23" fill="#FF2250"></path>
            <path d="M413.996,34.96 L402.076,43.018 C401.836667,42.54 401.585,42.0733333 401.321,41.618 C400.95098,40.9382558 400.544039,40.2792705 400.102,39.644 C399.812,39.191 399.502,38.751 399.171,38.323 C399.159,38.311 399.159,38.298 399.146,38.298 C398.780667,37.82 398.403333,37.3533333 398.014,36.898 C397.675,36.498 397.322,36.106 396.958,35.742 C396.806667,35.578 396.655667,35.427 396.505,35.289 C396.379,35.163 396.254,35.037 396.128,34.924 C395.828,34.624 395.512,34.333 395.197,34.069 C394.882,33.805 394.556,33.516 394.216,33.252 C393.876,32.988 393.525,32.711 393.173,32.46 C393.149675,32.4316722 393.119334,32.4099508 393.085,32.397 C392.885,32.246 392.67,32.097 392.456,31.957 C392.041,31.667 391.626,31.391 391.186,31.126 C390.821,30.913 390.456,30.699 390.079,30.485 C389.954,30.422 389.828,30.359 389.702,30.285 C389.274667,30.059 388.847333,29.8453333 388.42,29.644 C388.394,29.631 388.382,29.631 388.357,29.619 C387.857,29.38 387.338,29.153 386.822,28.952 C386.306,28.751 385.766,28.537 385.238,28.361 C384.71,28.185 384.157,28.009 383.603,27.861 C382.517159,27.5484408 381.412616,27.3049536 380.296,27.132 L379.126,26.943 C379.083961,26.9456061 379.041775,26.9415562 379.001,26.931 C378.624,26.88 378.246,26.843 377.882,26.817 C377.366,26.767 376.851,26.729 376.335,26.717 C375.92,26.704 375.505,26.692 375.09,26.692 C373.50713,26.682915 371.926075,26.8006247 370.362,27.044 C354.128,24.617 336.108,34.803 335.416,57.877 L334.938,57.877 C333.692516,57.8768613 332.491562,58.340275 331.569,59.177 C331.502797,59.2321305 331.439701,59.2908872 331.38,59.353 C330.439805,60.2987123 329.911127,61.577458 329.909,62.911 L335.391,62.911 L335.391,76.731 C335.391,80.478 338.221,88.64 339.151,91.984 C339.176,92.072 339.201,92.16 339.226,92.236 L327.356,100.284 L319.811,105.377 C316.919,98.611 312.756,85.747 312.756,76.731 L312.756,59.28 C312.756,21.065 342.456,3.133 370.425,5.38 C388.494,6.83 405.822,16.702 413.996,34.96 Z" id="Path_24" fill="#FF2250"></path>
            <path d="M438.076,80.268 C436.916425,81.4238186 436.264769,82.9937676 436.265,84.631 L443.646,84.631 C440.968,119.074 412.712,135.27 386.066,133.107 C367.807,131.636 350.303,121.551 342.305,102.865 L354.138,94.842 C360.124,107.995 373.655,113.642 386.116,111.768 L386.129,111.768 C402.715,114.258 421.213,103.405 421.213,79.211 L421.213,61.757 C421.213,57.608 418.698,48.591 417.692,45.234 L429.575,37.425 L437.095,32.496 C440.188,39.396 443.86,52.439 443.86,61.757 L443.86,78.457 L442.452,78.457 C440.810417,78.4540834 439.235437,79.105886 438.076,80.268 Z" id="Path_25" fill="#00D5DA"></path>
            <path d="M354.202,76.734 C354.180585,80.2857458 354.628802,83.8247371 355.535,87.259 L336.12,100.4 C335.408386,98.7356023 334.782892,97.0356879 334.246,95.307 C332.420499,89.2867677 331.517588,83.024716 331.568,76.734 L331.568,62.918 L354.202,62.918 L354.202,76.734 Z" id="Path_26" fill="#00D5DA"></path>
            <path d="M432.795,35.3 L413.376,48.39 C412.83326,46.5851248 412.134629,44.830853 411.288,43.147 C405.152,31.024 392.262,25.647 380.288,27.139 C366.988,28.799 354.799,38.984 354.22,57.884 L334.93,57.884 C333.684516,57.8838613 332.483562,58.347275 331.561,59.184 C331.611,24.791 355.742,6.96 380.967,5.501 C401.811,4.29 423.389,14.262 432.795,35.3 Z" id="Path_27" fill="#00D5DA"></path>
            <path d="M434.443,61.757 L434.443,79.211 C434.443,113.126 410.943,131.111 386.067,133.111 C382.953669,133.368994 379.824331,133.368994 376.711,133.111 C358.44,131.665 340.911,121.58 332.9,102.869 L344.746,94.859 L352.316,89.728 C352.783183,91.4808274 353.39288,93.1925283 354.139,94.846 C358.253586,103.990425 366.779011,110.37845 376.711,111.759 C379.827955,112.234815 382.998742,112.239197 386.117,111.772 L386.13,111.772 C398.944,109.835 410.63,99.914 411.72,82.007 L415.153,82.007 C417.583053,82.007 419.553,80.0370529 419.553,77.607 L419.553,76.475 L411.807,76.475 L411.807,61.757 C411.840551,57.9536859 411.311151,54.1663385 410.236,50.518 L422.119,42.482 L429.576,37.427 C430.314113,39.0724666 430.964688,40.7558174 431.525,42.47 C433.519108,48.7024557 434.504201,55.2135892 434.443,61.757 Z" id="Path_28" fill="#FFFFFF"></path>
            <path d="M423.389,34.96 L411.289,43.147 L404.046,48.038 C403.526964,46.3138703 402.868112,44.6349664 402.076,43.018 C401.837,42.54 401.598,42.075 401.321,41.618 C400.95098,40.9382558 400.544039,40.2792705 400.102,39.644 C399.812,39.191 399.502,38.751 399.171,38.323 C399.159,38.311 399.159,38.298 399.146,38.298 C398.780667,37.82 398.403333,37.3533333 398.014,36.898 C397.675,36.498 397.322,36.106 396.958,35.742 C396.806667,35.578 396.655667,35.427 396.505,35.289 C396.379,35.163 396.254,35.037 396.128,34.924 C395.828,34.624 395.512,34.333 395.197,34.069 C394.883,33.78 394.556,33.516 394.216,33.252 C393.876,32.988 393.537,32.711 393.173,32.46 C393.149675,32.4316722 393.119334,32.4099508 393.085,32.397 C392.885,32.246 392.67,32.097 392.456,31.957 C392.041,31.667 391.626,31.391 391.186,31.126 C390.821,30.913 390.456,30.699 390.079,30.485 C389.954,30.422 389.828,30.359 389.702,30.285 C389.274667,30.059 388.847333,29.8453333 388.42,29.644 C388.394,29.631 388.382,29.631 388.357,29.619 C387.857,29.38 387.338,29.153 386.822,28.952 C386.306,28.751 385.766,28.537 385.238,28.361 C384.71,28.185 384.157,28.009 383.603,27.861 C382.514302,27.5598186 381.410424,27.3164782 380.296,27.132 L379.126,26.943 C379.083961,26.9456061 379.041775,26.9415562 379.001,26.931 C378.624,26.893 378.259,26.843 377.882,26.817 C377.366,26.767 376.851,26.729 376.335,26.717 C375.92,26.704 375.505,26.692 375.09,26.692 C373.50713,26.682915 371.926075,26.8006247 370.362,27.044 C357.272,29.005 345.401,39.254 344.835,57.877 L334.935,57.877 C333.689516,57.8768613 332.488562,58.340275 331.566,59.177 C331.499797,59.2321305 331.436701,59.2908872 331.377,59.353 C330.436805,60.2987123 329.908127,61.577458 329.906,62.911 L344.806,62.911 L344.806,76.731 C344.787772,80.2817278 345.231494,83.8197434 346.126,87.256 L339.147,91.984 L334.247,95.304 L326.714,100.41 C326.023,98.762 325.407,97.065 324.853,95.304 C323.029784,89.2832599 322.126923,83.0215577 322.175,76.731 L322.175,59.28 C322.175,25.353 345.589,7.396 370.425,5.38 C373.937584,5.09105852 377.46941,5.12888756 380.975,5.493 C398.617,7.258 415.417,17.091 423.389,34.96 Z" id="Path_29" fill="#FFFFFF"></path>
            <path d="M382.835,33.11 L410.365,33.11 L410.365,34.922 C410.365,36.7888589 409.623393,38.5792561 408.303325,39.8993246 C406.983256,41.2193932 405.192859,41.961 403.326,41.961 L375.796,41.961 L375.796,40.149 C375.796,36.2614676 378.947468,33.11 382.835,33.11 Z" id="Rectangle_23" fill="#FFFFFF"></path>
            <path d="M314.069,35.021 L330.503,35.021 L330.503,36.051 C330.503,38.260139 328.712139,40.051 326.503,40.051 L310.069,40.051 L310.069,39.021 C310.069,36.811861 311.859861,35.021 314.069,35.021 Z" id="Rectangle_24" fill="#FFFFFF"></path>
            <path d="M433.47,102.141 L450.754,102.141 L450.754,103.085 C450.754,104.057549 450.367656,104.990265 449.679961,105.677961 C448.992265,106.365656 448.059549,106.752 447.087,106.752 L433.47,106.752 L433.47,102.141 Z" id="Rectangle_25" fill="#00D5DA"></path>
            <path d="M418.033,109.64 L442.112,109.64 L442.112,110.96 C442.112,112.32003 441.57173,113.624357 440.610044,114.586044 C439.648357,115.54773 438.34403,116.088 436.984,116.088 L418.033,116.088 L418.033,109.64 Z" id="Rectangle_26" fill="#FFFFFF"></path>
            <path d="M307.097,18.148 L335.005,18.148 L335.005,19.048 C335.005,20.9809966 333.437997,22.548 331.505,22.548 L303.597,22.548 L303.597,21.648 C303.597,19.7150034 305.164003,18.148 307.097,18.148 Z" id="Rectangle_27" fill="#FF2250"></path>
            <path d="M313.416,127.723 L336.908,127.723 L336.908,128.583 C336.908,129.468731 336.556596,130.318276 335.930383,130.944676 C335.30417,131.571076 334.454731,131.923 333.569,131.923 L310.076,131.923 L310.076,131.063 C310.076,129.218369 311.571369,127.723 313.416,127.723 Z" id="Rectangle_28" fill="#FF2250"></path>
            <rect id="Rectangle_29" fill="#FFFFFF" x="312.756" y="113.315" width="4.575" height="4.575"></rect>
            <rect id="Rectangle_30" fill="#00D5DA" x="451.268" y="66.966" width="4.575" height="4.575"></rect>
            <rect id="Rectangle_31" fill="#00D5DA" x="363.373" y="50.513" width="4.575" height="4.575"></rect>
            <path d="M349.55,95.092 L388.811,95.092 L388.811,96.904 C388.811,98.7708589 388.069393,100.561256 386.749325,101.881325 C385.429256,103.201393 383.638859,103.943 381.772,103.943 L342.511,103.943 L342.511,102.131 C342.511,98.2434676 345.662468,95.092 349.55,95.092 Z" id="Rectangle_32" fill="#FFFFFF"></path>
            <path d="M459.252,74.813 L486.782,74.813 L486.782,76.625 C486.782,78.4919402 486.040744,80.2824915 484.720618,81.6026176 C483.400492,82.9227437 481.60994,83.6642653 479.743,83.6640001 L452.213,83.6640001 L452.213,81.852 C452.213,77.9644676 455.364468,74.813 459.252,74.813 Z" id="Rectangle_33" fill="#FF2250"></path>
            <path d="M567.509,76.149 L592.134,76.149 L592.134,77.414 C592.134,80.1279273 589.933927,82.328 587.22,82.328 L562.595,82.328 L562.595,81.063 C562.595,78.3490727 564.795073,76.149 567.509,76.149 Z" id="Rectangle_34" fill="#00D5DA"></path>
            <path d="M474.412,120.059 L492.749,120.059 L492.749,121.324 C492.749,124.037927 490.548927,126.238 487.835,126.238 L469.498,126.238 L469.498,124.973 C469.498,122.259073 471.698073,120.059 474.412,120.059 Z" id="Rectangle_35" fill="#FF2250"></path>
            <path d="M575.303,88.454 L575.303,110.573 L561.131,110.573 L561.131,134.025 L538.676,134.025 L538.676,117.025 L550.169,117.025 C551.880889,117.028193 553.523582,116.349562 554.734072,115.139072 C555.944562,113.928582 556.623193,112.285889 556.62,110.574 L500.092,110.574 L500.092,104.45 L509.146,104.45 L561.131,69.25 L561.131,88.45 L575.303,88.454 Z" id="Path_30" fill="#FF2250"></path>
            <path d="M520.076,6.642 L505.176,27.076 L501.516,32.106 L493.355,43.298 L489.683,48.328 L470.368,74.81 L465.653,81.286 L465.867,83.663 L466.294,88.454 L466.671,92.654 L467.728,104.454 L509.076,104.454 L515.904,99.839 L541.796,82.339 L541.821,82.326 L553.603,74.367 L554.823,73.537 L554.823,6.642 L520.076,6.642 Z M491.392,82.33 L532.349,26.347 L532.349,82.33 L491.392,82.33 Z" id="Path_31" fill="#FF2250"></path>
            <path d="M584.776,88.454 L584.776,110.573 L570.6,110.573 L570.6,134.025 L548.116,134.025 L548.129,117.025 L550.165,117.025 C551.876889,117.028193 553.519582,116.349562 554.730072,115.139072 C555.940562,113.928582 556.619193,112.285889 556.616,110.574 L515.476,110.574 L561.135,79.665 L570.604,73.252 L570.604,88.452 L584.776,88.454 Z" id="Path_32" fill="#FFFFFF"></path>
            <path d="M529.555,6.642 L525.745,11.86 L522.538,16.26 L514.654,27.074 L510.982,32.104 L479.847,74.804 L475.119,81.28 L475.332,83.657 L475.76,88.448 L476.137,92.648 L477.194,104.448 L509.146,104.448 L515.962,99.833 L541.816,82.333 L500.859,82.333 L503.827,78.284 L507.499,73.254 L532.347,39.289 L541.816,26.35 L541.816,82.333 L553.598,74.361 L554.818,73.531 L561.131,69.268 L564.287,67.13 L564.287,53.36 L554.818,53.36 C554.817735,52.0259716 555.347626,50.74652 556.29102,49.8033133 C557.234415,48.8601065 558.513972,48.3304693 559.848,48.331 L564.287,48.331 L564.287,6.642 L529.555,6.642 Z" id="Path_33" fill="#FFFFFF"></path>
            <rect id="Rectangle_36" fill="#00D5DA" x="584.773" y="88.458" width="9.405" height="22.118"></rect>
            <rect id="Rectangle_37" fill="#00D5DA" x="564.287" y="6.642" width="9.393" height="41.686"></rect>
            <polygon id="Path_34" fill="#00D5DA" points="564.287 53.357 573.676 53.357 573.676 60.751 564.283 67.126"></polygon>
            <polygon id="Path_35" fill="#00D5DA" points="570.603 73.253 580.012 66.337 580.012 88.455 570.612 88.455"></polygon>
            <path d="M552.873,6.642 L592.134,6.642 L592.134,8.454 C592.134,10.3208589 591.392393,12.1112561 590.072325,13.4313246 C588.752256,14.7513932 586.961859,15.493 585.095,15.493 L545.834,15.493 L545.834,13.681 C545.834,9.79346765 548.985468,6.642 552.873,6.642 Z" id="Rectangle_38" fill="#FFFFFF"></path>
            <path d="M482.451,43.298 L495.113,43.298 L495.113,44.328 C495.113,46.537139 493.322139,48.328 491.113,48.328 L478.451,48.328 L478.451,47.298 C478.451,45.088861 480.241861,43.298 482.451,43.298 Z" id="Rectangle_39" fill="#FF2250"></path>
            <path d="M580.806,99.123 L606.043,99.123 L606.043,100.153 C606.043,102.362139 604.252139,104.153 602.043,104.153 L576.806,104.153 L576.806,103.123 C576.806,100.913861 578.596861,99.123 580.806,99.123 Z" id="Rectangle_40" fill="#FFFFFF"></path>
            <path d="M503.329,73.253 L515.991,73.253 L515.991,74.283 C515.991,76.492139 514.200139,78.283 511.991,78.283 L499.329,78.283 L499.329,77.253 C499.329,75.043861 501.119861,73.253 503.329,73.253 Z" id="Rectangle_41" fill="#FFFFFF"></path>
            <path d="M519.466,64.608 L525.84,64.608 L525.84,65.638 C525.84,67.847139 524.049139,69.638 521.84,69.638 L515.466,69.638 L515.466,68.608 C515.466,66.398861 517.256861,64.608 519.466,64.608 Z" id="Rectangle_42" fill="#FF2250"></path>
            <path d="M578.825,115.603 L585.199,115.603 L585.199,116.633 C585.199,118.842139 583.408139,120.633 581.199,120.633 L574.825,120.633 L574.825,119.603 C574.825,117.393861 576.615861,115.603 578.825,115.603 Z" id="Rectangle_43" fill="#00D5DA"></path>
            <path d="M545.875,124.876 L564.281,124.876 L564.281,125.906 C564.281,128.115139 562.490139,129.906 560.281,129.906 L541.875,129.906 L541.875,128.876 C541.875,126.666861 543.665861,124.876 545.875,124.876 Z" id="Rectangle_44" fill="#FF2250"></path>
            <path d="M503.369,99.836 L520.653,99.836 L520.653,100.78 C520.653,101.752549 520.266656,102.685265 519.578961,103.372961 C518.891265,104.060656 517.958549,104.447 516.986,104.447 L503.369,104.447 L503.369,99.836 Z" id="Rectangle_45" fill="#FFFFFF"></path>
            <path d="M520.653,11.86 L539.486,11.86 L539.486,12.76 C539.486,14.6929966 537.918997,16.26 535.986,16.26 L520.653,16.26 L520.653,11.86 Z" id="Rectangle_46" fill="#FF2250"></path>
            <path d="M459.95,88.455 L486.782,88.455 L486.782,92.655 L463.289,92.655 C462.403269,92.655 461.55383,92.3030763 460.927617,91.676676 C460.301404,91.0502757 459.95,90.2007311 459.95,89.315 L459.95,88.455 Z" id="Rectangle_47" fill="#FFFFFF"></path>
            <rect id="Rectangle_48" fill="#00D5DA" x="601.467" y="108.289" width="4.575" height="4.575"></rect>
            <rect id="Rectangle_49" fill="#FFFFFF" x="530.249" y="113.315" width="4.575" height="4.575"></rect>
            <rect id="Rectangle_50" fill="#FF2250" x="459.95" y="64.835" width="4.575" height="4.575"></rect>
            <path d="M478.744,27.076 L520.328,27.076 L520.328,28.106 C520.328,30.315139 518.537139,32.106 516.328,32.106 L474.744,32.106 L474.744,31.076 C474.744,28.866861 476.534861,27.076 478.744,27.076 Z" id="Rectangle_51" fill="#FFFFFF"></path>
            <path d="M132.443,94.754 L24.643,94.754 C24.643,92.4344041 26.5234041,90.554 28.843,90.554 L136.643,90.554 C136.643,92.8735959 134.762596,94.754 132.443,94.754 L132.443,94.754 Z" id="Path_36" fill="#141414"></path>
            <path d="M690.74,85.949 L632.94,85.949 C632.94,83.6294041 634.820404,81.749 637.14,81.749 L694.94,81.749 C694.94,84.0685959 693.059596,85.949 690.74,85.949 L690.74,85.949 Z" id="Path_37" fill="#141414"></path>
        </g>
    </g>
</svg>