<?xml version="1.0" encoding="UTF-8"?>
<svg width="256px" height="256px" viewBox="0 0 256 256" version="1.1" xmlns="http://www.w3.org/2000/svg" xmlns:xlink="http://www.w3.org/1999/xlink">
    <!-- Generator: Sketch 54.1 (76490) - https://sketchapp.com -->
    <title>Group 2</title>
    <desc>Created with Sketch.</desc>
    <defs>
        <circle id="path-1" cx="120" cy="120" r="120"></circle>
        <path d="M12,160 C12,226.27417 65.72583,280 132,280 C198.27417,280 252,226.27417 252,160 L264,160 L264,-1.42108547e-14 L-3.19744231e-14,-1.42108547e-14 L-3.19744231e-14,160 L12,160 Z" id="path-3"></path>
        <path d="M124,141.647612 L124,159.659836 L128,159.659836 L128,159.659836 C167.764502,159.659836 200,191.234771 200,230.184426 L200,239 L0,239 L0,230.184426 C-4.86974701e-15,191.234771 32.235498,159.659836 72,159.659836 L72,159.659836 L76,159.659836 L76,141.647612 C58.7626345,133.626832 46.3722246,117.234408 44.3051388,97.8344918 C38.4803105,97.0279139 34,92.1248123 34,86.1967213 L34,72.4836066 C34,66.6594581 38.3245733,61.82467 44,60.8920252 L44,54.852459 L44,54.852459 C44,24.5582824 69.072054,5.56494996e-15 100,0 L100,0 L100,0 C130.927946,-5.56494996e-15 156,24.5582824 156,54.852459 L156,60.8920252 C161.675427,61.82467 166,66.6594581 166,72.4836066 L166,86.1967213 C166,92.1248123 161.51969,97.0279139 155.694861,97.8344918 C153.627775,117.234408 141.237365,133.626832 124,141.647612 Z" id="path-5"></path>
        <path d="M124,141.647612 L124,159.659836 L128,159.659836 L128,159.659836 C167.764502,159.659836 200,191.234771 200,230.184426 L200,239 L0,239 L0,230.184426 C-4.86974701e-15,191.234771 32.235498,159.659836 72,159.659836 L72,159.659836 L76,159.659836 L76,141.647612 C58.7626345,133.626832 46.3722246,117.234408 44.3051388,97.8344918 C38.4803105,97.0279139 34,92.1248123 34,86.1967213 L34,72.4836066 C34,66.6594581 38.3245733,61.82467 44,60.8920252 L44,54.852459 L44,54.852459 C44,24.5582824 69.072054,5.56494996e-15 100,0 L100,0 L100,0 C130.927946,-5.56494996e-15 156,24.5582824 156,54.852459 L156,60.8920252 C161.675427,61.82467 166,66.6594581 166,72.4836066 L166,86.1967213 C166,92.1248123 161.51969,97.0279139 155.694861,97.8344918 C153.627775,117.234408 141.237365,133.626832 124,141.647612 Z" id="path-7"></path>
        <path d="M133.960472,0.287723036 C170.936473,3.24390064 200,33.4578396 200,70.2943644 L200,79.0243902 L0,79.0243902 L0,70.2943644 C1.22536245e-14,33.1244518 29.591985,2.69754265 67.0454063,0.214172105 C67.0152598,0.57864834 67,0.945587498 67,1.3147562 C67,12.8885051 81.9984609,22.2708823 100.5,22.2708823 C119.001539,22.2708823 134,12.8885051 134,1.3147562 C134,0.970408866 133.986723,0.628001346 133.960472,0.287723036 Z" id="path-9"></path>
        <path d="M133.960472,0.287723036 C170.936473,3.24390064 200,33.4578396 200,70.2943644 L200,79.0243902 L0,79.0243902 L0,70.2943644 C1.22536245e-14,33.1244518 29.591985,2.69754265 67.0454063,0.214172105 C67.0152598,0.57864834 67,0.945587498 67,1.3147562 C67,12.8885051 81.9984609,22.2708823 100.5,22.2708823 C119.001539,22.2708823 134,12.8885051 134,1.3147562 C134,0.970408866 133.986723,0.628001346 133.960472,0.287723036 Z" id="path-11"></path>
        <path d="M0.117844,2.07351112 C1.1757121,11.3218588 9.2259873,18.5128205 19,18.5128205 C28.8042055,18.5128205 36.8740075,11.2773633 37.8917593,1.98774551 C37.9736685,1.24011149 37.1167429,0 36.042767,0 C21.1487536,0 9.7379213,0 2.0868244,0 C1.0066168,0 0.0120058,1.148227 0.117844,2.07351112 Z" id="path-13"></path>
        <path d="M0.117844,2.07351112 C1.1757121,11.3218588 9.2259873,18.5128205 19,18.5128205 C28.8042055,18.5128205 36.8740075,11.2773633 37.8917593,1.98774551 C37.9736685,1.24011149 37.1167429,0 36.042767,0 C21.1487536,0 9.7379213,0 2.0868244,0 C1.0066168,0 0.0120058,1.148227 0.117844,2.07351112 Z" id="path-15"></path>
        <rect id="path-17" x="0" y="0" width="264" height="274"></rect>
        <path d="M1,62.6285714 C1.34685629,64.0851241 2.67275588,63.8250435 3,62.6285714 C2.53726005,61.1075994 6.29594493,34.4927561 16,27.4 C19.618222,24.9373146 39.0082164,22.7340833 58.3126144,22.7474487 C77.4086061,22.7606699 96.4208396,24.9639013 100,27.4 C109.704055,34.4927561 113.46274,61.1075994 113,62.6285714 C113.327244,63.8250435 114.653144,64.0851241 115,62.6285714 C115.719178,52.5511623 115,0.268483622 58,0.978571429 C1,1.68865924 0.280821545,52.5511623 1,62.6285714 Z" id="path-19"></path>
    </defs>
    <g id="Page-1" stroke="none" stroke-width="1" fill="none" fill-rule="evenodd">
        <g id="Group-2" transform="translate(-4.000000, -32.000000)">
            <g id="Circle" transform="translate(12.000000, 40.000000)">
                <g id="Circle-Background" fill="#E6E6E6" fill-rule="nonzero" stroke="#FFFFFF" stroke-width="15">
                    <circle id="path-1" cx="120" cy="120" r="120"></circle>
                </g>
                <g id="Color/Palette/Blue-01-Clipped">
                    <g>
                        <mask id="mask-2" fill="white">
                            <use xlink:href="#path-1"></use>
                        </mask>
                        <g id="path-1"></g>
                        <g id="Color/Palette/Blue-01" mask="url(#mask-2)" fill="#65C9FF" fill-rule="nonzero">
                            <rect id="🖍Color" x="0" y="0" width="240" height="240"></rect>
                        </g>
                    </g>
                </g>
            </g>
            <path d="M135.027401,114.84942 C144.905279,126.107775 154.40533,135.941108 163.527555,144.34942 C177.210893,156.961889 190.833331,158.894232 204.527401,171.996986 C213.656781,180.732156 218.767037,191.603466 219.858172,204.610916 C212.132176,193.239642 203.021919,184.341166 192.527401,177.915489 C176.785624,168.276974 176.785624,171.996986 160.527401,161.84942 C149.688585,155.084377 141.188585,139.41771 135.027401,114.84942 Z" id="Path" fill="#2C1B18" fill-rule="nonzero" transform="translate(177.442786, 159.730168) rotate(4.000000) translate(-177.442786, -159.730168) "></path>
            <path d="M132.5,127 C142.377878,138.258355 151.877929,148.091688 161.000154,156.5 C174.683492,169.112468 188.305931,171.044811 202,184.147566 C211.12938,192.882735 216.239637,203.754045 217.330771,216.761495 C209.604775,205.390221 200.494518,196.491746 190,190.066069 C174.258223,180.427554 174.258223,184.147566 158,174 C147.161184,167.234956 138.661184,151.568289 132.5,127 Z" id="Path" fill="#2C1B18" fill-rule="nonzero"></path>
            <g id="Avataaar-Clipped">
                <mask id="mask-4" fill="white">
                    <use xlink:href="#path-3"></use>
                </mask>
                <g id="path-3"></g>
                <g id="Avataaar" mask="url(#mask-4)">
                    <g transform="translate(0.000000, 6.000000)" id="Group">
                        <g>
                            <g id="Body" transform="translate(32.000000, 35.000000)">
                                <g id="path-5-link" fill="#D0C6AC" fill-rule="nonzero">
                                    <path d="M124,141.647612 L124,159.659836 L128,159.659836 L128,159.659836 C167.764502,159.659836 200,191.234771 200,230.184426 L200,239 L0,239 L0,230.184426 C-4.86974701e-15,191.234771 32.235498,159.659836 72,159.659836 L72,159.659836 L76,159.659836 L76,141.647612 C58.7626345,133.626832 46.3722246,117.234408 44.3051388,97.8344918 C38.4803105,97.0279139 34,92.1248123 34,86.1967213 L34,72.4836066 C34,66.6594581 38.3245733,61.82467 44,60.8920252 L44,54.852459 L44,54.852459 C44,24.5582824 69.072054,5.56494996e-15 100,0 L100,0 L100,0 C130.927946,-5.56494996e-15 156,24.5582824 156,54.852459 L156,60.8920252 C161.675427,61.82467 166,66.6594581 166,72.4836066 L166,86.1967213 C166,92.1248123 161.51969,97.0279139 155.694861,97.8344918 C153.627775,117.234408 141.237365,133.626832 124,141.647612 Z" id="path-5"></path>
                                </g>
                                <g id="Skin/👶🏽-03-Brown-Clipped">
                                    <g>
                                        <mask id="mask-6" fill="white">
                                            <use xlink:href="#path-5"></use>
                                        </mask>
                                        <g id="path-5"></g>
                                        <g id="Skin/👶🏽-03-Brown" mask="url(#mask-6)">
                                            <g transform="translate(-32.000000, 0.000000)" id="Color">
                                                <g>
                                                    <g id="Group" fill="#EDB98A" fill-rule="nonzero">
                                                        <g id="Rectangle">
                                                            <g>
                                                                <rect x="0" y="0" width="264" height="239"></rect>
                                                            </g>
                                                        </g>
                                                    </g>
                                                </g>
                                            </g>
                                        </g>
                                    </g>
                                </g>
                                <g id="Neck-Shadow-Clipped">
                                    <g>
                                        <mask id="mask-8" fill="white">
                                            <use xlink:href="#path-7"></use>
                                        </mask>
                                        <g id="path-7"></g>
                                        <path d="M156,77.3811475 L156,99.9098361 C156,130.204013 130.927946,154.762295 100,154.762295 C69.072054,154.762295 44,130.204013 44,99.9098361 L44,77.3811475 L44,92.0737705 C44,122.367947 69.072054,146.92623 100,146.92623 C130.927946,146.92623 156,122.367947 156,92.0737705 L156,77.3811475 Z" id="Neck-Shadow" fill-opacity="0.100000001" fill="#000000" fill-rule="nonzero" mask="url(#mask-8)"></path>
                                    </g>
                                </g>
                            </g>
                            <g id="Clothing/Blazer-+-Shirt" transform="translate(32.000000, 194.000000)">
                                <g id="Shirt" transform="translate(0.000000, 0.975610)">
                                    <g id="Clothes" fill="#E6E6E6" fill-rule="nonzero">
                                        <path d="M133.960472,0.287723036 C170.936473,3.24390064 200,33.4578396 200,70.2943644 L200,79.0243902 L0,79.0243902 L0,70.2943644 C1.22536245e-14,33.1244518 29.591985,2.69754265 67.0454063,0.214172105 C67.0152598,0.57864834 67,0.945587498 67,1.3147562 C67,12.8885051 81.9984609,22.2708823 100.5,22.2708823 C119.001539,22.2708823 134,12.8885051 134,1.3147562 C134,0.970408866 133.986723,0.628001346 133.960472,0.287723036 Z" id="react-path-78"></path>
                                    </g>
                                    <g id="Color/Palette/Black-Clipped">
                                        <g>
                                            <mask id="mask-10" fill="white">
                                                <use xlink:href="#path-9"></use>
                                            </mask>
                                            <g id="path-9"></g>
                                            <g id="Color/Palette/Black" mask="url(#mask-10)">
                                                <g transform="translate(-32.000000, -29.000000)" id="🖍Color">
                                                    <g transform="translate(0.000000, 0.707317)">
                                                        <g id="Group" fill="#262E33" fill-rule="nonzero">
                                                            <g id="Rectangle">
                                                                <g>
                                                                    <rect x="0" y="0" width="264" height="107.317073"></rect>
                                                                </g>
                                                            </g>
                                                        </g>
                                                    </g>
                                                </g>
                                            </g>
                                        </g>
                                    </g>
                                    <g id="Shadowy-Clipped">
                                        <g>
                                            <mask id="mask-12" fill="white">
                                                <use xlink:href="#path-11"></use>
                                            </mask>
                                            <g id="path-11"></g>
                                            <g id="Shadowy" opacity="0.599999964" mask="url(#mask-12)">
                                                <g transform="translate(60.000000, -25.000000)" id="Hola-👋🏼">
                                                    <g transform="translate(0.000000, 0.609756)">
                                                        <g id="Group" fill="#000000" fill-rule="nonzero">
                                                            <g id="Oval">
                                                                <g>
                                                                    <ellipse cx="40.5" cy="27.1684147" rx="39.6351047" ry="26.2573924"></ellipse>
                                                                </g>
                                                            </g>
                                                        </g>
                                                    </g>
                                                </g>
                                            </g>
                                        </g>
                                    </g>
                                </g>
                                <g id="Blazer" fill-rule="nonzero">
                                    <path d="M68.784807,1.09485704 C30.512317,2.73570477 -1.89486556e-14,33.5264817 -1.42108547e-14,71.2699741 L0,71.2699741 L-1.42108547e-14,80 L69.3616767,80 C65.9607412,68.2146284 64,54.3499801 64,39.5121951 C64,25.5346084 65.7399891,12.4205966 68.784807,1.09485704 Z M131.638323,80 L200,80 L200,71.2699741 C200,33.8602577 170.024954,3.28083089 132.228719,1.14521195 C135.265163,12.4594599 137,25.5553186 137,39.5121951 C137,54.3499801 135.039259,68.2146284 131.638323,80 Z" id="Saco" fill="#3A4C5A"></path>
                                    <path d="M149,56.5853659 L158.555853,49.593278 L158.555853,49.593278 C159.998897,48.5373927 161.987779,48.5544122 163.411616,49.6348303 L170,54.6341463 L149,56.5853659 Z" id="Pocket-hanky" fill="#E6E6E6"></path>
                                    <path d="M69,1.13686838e-13 C65,18.8617886 66.6666667,45.5284553 74,80 L58,80 L44,44.8780488 L50,36.097561 L44,30.2439024 L63,0.975609756 C65.027659,0.360232817 67.027659,0.0350295646 69,1.13686838e-13 Z" id="Wing" fill="#2F4351"></path>
                                    <path d="M151,1.13686838e-13 C147,18.8617886 148.666667,45.5284553 156,80 L140,80 L126,44.8780488 L132,36.097561 L126,30.2439024 L145,0.975609756 C147.027659,0.360232817 149.027659,0.0350295646 151,1.13686838e-13 Z" id="Wing" fill="#2F4351" transform="translate(141.000000, 40.000000) scale(-1, 1) translate(-141.000000, -40.000000) "></path>
                                </g>
                            </g>
                            <g id="Face" transform="translate(88.000000, 86.000000)">
                                <g id="Mouth/Smile" transform="translate(25.000000, 57.487179)">
                                    <g id="Mouth" fill="#000000" fill-opacity="0.699999988" fill-rule="nonzero">
                                        <path d="M0.117844,2.07351112 C1.1757121,11.3218588 9.2259873,18.5128205 19,18.5128205 C28.8042055,18.5128205 36.8740075,11.2773633 37.8917593,1.98774551 C37.9736685,1.24011149 37.1167429,0 36.042767,0 C21.1487536,0 9.7379213,0 2.0868244,0 C1.0066168,0 0.0120058,1.148227 0.117844,2.07351112 Z" id="react-path-96"></path>
                                    </g>
                                    <g id="Teeth-Clipped">
                                        <g>
                                            <mask id="mask-14" fill="white">
                                                <use xlink:href="#path-13"></use>
                                            </mask>
                                            <g id="path-13"></g>
                                            <rect id="Teeth" fill="#FFFFFF" fill-rule="nonzero" mask="url(#mask-14)" x="4" y="-10.7179487" width="31" height="15.5897436" rx="5"></rect>
                                        </g>
                                    </g>
                                    <g id="Tongue-Clipped">
                                        <g>
                                            <mask id="mask-16" fill="white">
                                                <use xlink:href="#path-15"></use>
                                            </mask>
                                            <g id="path-15"></g>
                                            <g id="Tongue" mask="url(#mask-16)">
                                                <g transform="translate(3.000000, 10.000000)" id="Group">
                                                    <g transform="translate(0.000000, 0.717949)">
                                                        <g fill="#FF4F6D" fill-rule="nonzero" id="Oval">
                                                            <g>
                                                                <g id="Group">
                                                                    <ellipse id="Oval" cx="11" cy="10.7179487" rx="11" ry="10.7179487"></ellipse>
                                                                    <ellipse id="Oval" cx="21" cy="10.7179487" rx="11" ry="10.7179487"></ellipse>
                                                                </g>
                                                            </g>
                                                        </g>
                                                    </g>
                                                </g>
                                            </g>
                                        </g>
                                    </g>
                                </g>
                                <g id="Nose/Default" transform="translate(32.000000, 40.923077)" fill="#000000" fill-opacity="0.16" fill-rule="nonzero">
                                    <path d="M0,0 C0,4.30498882 5.372583,7.79487179 12,7.79487179 L12,7.79487179 C18.627417,7.79487179 24,4.30498882 24,0" id="Nose"></path>
                                </g>
                                <g id="Eyes/Default-😀" transform="translate(12.000000, 17.538462)" fill="#000000" fill-opacity="0.599999964" fill-rule="nonzero">
                                    <ellipse id="Eye" cx="6" cy="5.84615385" rx="6" ry="5.84615385"></ellipse>
                                    <ellipse id="Eye" cx="58" cy="5.84615385" rx="6" ry="5.84615385"></ellipse>
                                </g>
                                <g id="Eyebrow/Outline/Default" fill="#000000" fill-opacity="0.599999964" fill-rule="nonzero">
                                    <g id="I-Browse">
                                        <path d="M3.63024536,10.8724593 C7.54515501,5.50499835 18.2779197,2.49517472 27.5230268,4.70730404 C28.5957248,4.96397459 29.6788665,4.3247509 29.9422916,3.27955796 C30.2057166,2.23436502 29.5496712,1.17899615 28.4769732,0.922325594 C17.7403633,-1.6466841 5.31209962,1.83861375 0.369754639,8.6147201 C-0.270109626,9.4919936 -0.0589363917,10.7085765 0.84142326,11.332034 C1.74178291,11.9554914 2.9903811,11.7497329 3.63024536,10.8724593 Z" id="Eyebrow"></path>
                                        <path d="M61.6302461,10.8724593 C65.5451557,5.50499835 76.2779204,2.49517472 85.5230275,4.70730404 C86.5957255,4.96397459 87.6788672,4.3247509 87.9422923,3.27955796 C88.2057173,2.23436502 87.5496719,1.17899615 86.4769739,0.922325594 C75.740364,-1.6466841 63.3121003,1.83861375 58.3697553,8.6147201 C57.7298911,9.4919936 57.9410643,10.7085765 58.841424,11.332034 C59.7417836,11.9554914 60.9903818,11.7497329 61.6302461,10.8724593 Z" id="Eyebrow" transform="translate(73.000154, 5.884347) scale(-1, 1) translate(-73.000154, -5.884347) "></path>
                                    </g>
                                </g>
                            </g>
                            <g id="Top">
                                <g id="Top/Short-Hair/The-Caesar-Clipped">
                                    <g>
                                        <mask id="mask-18" fill="white">
                                            <use xlink:href="#path-17"></use>
                                        </mask>
                                        <g id="path-17"></g>
                                        <g id="Top/Short-Hair/The-Caesar" mask="url(#mask-18)">
                                            <g transform="translate(69.000000, 33.000000)" id="Group">
                                                <g transform="translate(0.000000, 0.271429)">
                                                    <g>
                                                        <g>
                                                            <g id="Hair" transform="translate(5.000000, 0.000000)">
                                                                <g id="Caesar" fill="#28354B" fill-rule="nonzero">
                                                                    <path d="M1,62.6285714 C1.34685629,64.0851241 2.67275588,63.8250435 3,62.6285714 C2.53726005,61.1075994 6.29594493,34.4927561 16,27.4 C19.618222,24.9373146 39.0082164,22.7340833 58.3126144,22.7474487 C77.4086061,22.7606699 96.4208396,24.9639013 100,27.4 C109.704055,34.4927561 113.46274,61.1075994 113,62.6285714 C113.327244,63.8250435 114.653144,64.0851241 115,62.6285714 C115.719178,52.5511623 115,0.268483622 58,0.978571429 C1,1.68865924 0.280821545,52.5511623 1,62.6285714 Z" id="react-path-179"></path>
                                                                </g>
                                                                <g id="Skin/👶🏽-03-Brown-Clipped">
                                                                    <g>
                                                                        <mask id="mask-20" fill="white">
                                                                            <use xlink:href="#path-19"></use>
                                                                        </mask>
                                                                        <g id="path-19"></g>
                                                                        <g id="Skin/👶🏽-03-Brown" mask="url(#mask-20)" fill="#2C1B18" fill-rule="nonzero">
                                                                            <g id="Color">
                                                                                <rect id="Rectangle" x="0" y="0" width="264" height="274"></rect>
                                                                            </g>
                                                                        </g>
                                                                    </g>
                                                                </g>
                                                            </g>
                                                            <g id="Top/_Resources/Round" transform="translate(0.000000, 52.842857)" fill-rule="nonzero">
                                                                <g id="Lennon-Glasses">
                                                                    <g id="react-path-180-link" fill="#000000">
                                                                        <path d="M72.4646192,13.1071011 C76.3801509,5.3417247 84.552602,0 94,0 C102.919691,0 110.702887,4.7616413 114.839921,11.8290339 C115.050197,11.7728507 115.271519,11.7428571 115.5,11.7428571 L123.5,11.7428571 C124.880712,11.7428571 126,12.8381605 126,14.1892857 C126,15.5404109 124.880712,16.6357143 123.5,16.6357143 L116.963126,16.6357143 C117.637355,18.8028508 118,21.1028399 118,23.4857143 C118,36.4565161 107.254834,46.9714286 94,46.9714286 C80.745166,46.9714286 70,36.4565161 70,23.4857143 C70,22.09429 70.1236513,20.7311273 70.3607874,19.4061746 C70.2762458,15.1241184 66.9135957,11.7428571 62.8624171,11.7428571 C59.1256697,11.7428571 55.9747186,14.6196159 55.4417635,18.4265616 C55.8073299,20.0560095 56,21.7488437 56,23.4857143 C56,36.4565161 45.254834,46.9714286 32,46.9714286 C18.745166,46.9714286 8,36.4565161 8,23.4857143 C8,21.1028399 8.3626451,18.8028508 9.0368738,16.6357143 L2.5,16.6357143 C1.11928813,16.6357143 0,15.5404109 0,14.1892857 C0,12.8381605 1.11928813,11.7428571 2.5,11.7428571 L2.5,11.7428571 L10.5,11.7428571 C10.728481,11.7428571 10.9498033,11.7728507 11.1600793,11.8290339 C15.2971127,4.7616413 23.0803092,0 32,0 C41.3521568,0 49.4549431,5.23456543 53.415666,12.8729897 C55.4929212,9.82414523 58.9494432,7.82857143 62.8624171,7.82857143 C66.8746823,7.82857143 70.4070368,9.926705 72.4646192,13.1071011 Z M32,43.0571429 C43.045695,43.0571429 52,34.2947158 52,23.4857143 C52,12.6767128 43.045695,3.91428571 32,3.91428571 C20.954305,3.91428571 12,12.6767128 12,23.4857143 C12,34.2947158 20.954305,43.0571429 32,43.0571429 Z M94,43.0571429 C105.045695,43.0571429 114,34.2947158 114,23.4857143 C114,12.6767128 105.045695,3.91428571 94,3.91428571 C82.954305,3.91428571 74,12.6767128 74,23.4857143 C74,34.2947158 82.954305,43.0571429 94,43.0571429 Z" id="react-path-180"></path>
                                                                    </g>
                                                                    <g id="react-path-180-link" fill="#252C2F">
                                                                        <path d="M72.4646192,13.1071011 C76.3801509,5.3417247 84.552602,0 94,0 C102.919691,0 110.702887,4.7616413 114.839921,11.8290339 C115.050197,11.7728507 115.271519,11.7428571 115.5,11.7428571 L123.5,11.7428571 C124.880712,11.7428571 126,12.8381605 126,14.1892857 C126,15.5404109 124.880712,16.6357143 123.5,16.6357143 L116.963126,16.6357143 C117.637355,18.8028508 118,21.1028399 118,23.4857143 C118,36.4565161 107.254834,46.9714286 94,46.9714286 C80.745166,46.9714286 70,36.4565161 70,23.4857143 C70,22.09429 70.1236513,20.7311273 70.3607874,19.4061746 C70.2762458,15.1241184 66.9135957,11.7428571 62.8624171,11.7428571 C59.1256697,11.7428571 55.9747186,14.6196159 55.4417635,18.4265616 C55.8073299,20.0560095 56,21.7488437 56,23.4857143 C56,36.4565161 45.254834,46.9714286 32,46.9714286 C18.745166,46.9714286 8,36.4565161 8,23.4857143 C8,21.1028399 8.3626451,18.8028508 9.0368738,16.6357143 L2.5,16.6357143 C1.11928813,16.6357143 0,15.5404109 0,14.1892857 C0,12.8381605 1.11928813,11.7428571 2.5,11.7428571 L2.5,11.7428571 L10.5,11.7428571 C10.728481,11.7428571 10.9498033,11.7728507 11.1600793,11.8290339 C15.2971127,4.7616413 23.0803092,0 32,0 C41.3521568,0 49.4549431,5.23456543 53.415666,12.8729897 C55.4929212,9.82414523 58.9494432,7.82857143 62.8624171,7.82857143 C66.8746823,7.82857143 70.4070368,9.926705 72.4646192,13.1071011 Z M32,43.0571429 C43.045695,43.0571429 52,34.2947158 52,23.4857143 C52,12.6767128 43.045695,3.91428571 32,3.91428571 C20.954305,3.91428571 12,12.6767128 12,23.4857143 C12,34.2947158 20.954305,43.0571429 32,43.0571429 Z M94,43.0571429 C105.045695,43.0571429 114,34.2947158 114,23.4857143 C114,12.6767128 105.045695,3.91428571 94,3.91428571 C82.954305,3.91428571 74,12.6767128 74,23.4857143 C74,34.2947158 82.954305,43.0571429 94,43.0571429 Z" id="react-path-180"></path>
                                                                    </g>
                                                                </g>
                                                            </g>
                                                        </g>
                                                    </g>
                                                </g>
                                            </g>
                                        </g>
                                    </g>
                                </g>
                            </g>
                        </g>
                    </g>
                </g>
            </g>
            <rect id="Rectangle" fill="#E3D8D8" fill-rule="nonzero" x="189" y="131" width="2" height="8" rx="1"></rect>
            <rect id="Rectangle-Copy" fill="#E3D8D8" fill-rule="nonzero" x="192" y="130" width="2" height="7" rx="1"></rect>
        </g>
    </g>
</svg>