<?xml version="1.0" encoding="UTF-8"?>
<svg width="650px" height="554px" viewBox="0 0 650 554" version="1.1" xmlns="http://www.w3.org/2000/svg" xmlns:xlink="http://www.w3.org/1999/xlink">
    <!-- Generator: Sketch 54.1 (76490) - https://sketchapp.com -->
    <title>bg</title>
    <desc>Created with Sketch.</desc>
    <g id="Page-1" stroke="none" stroke-width="1" fill="none" fill-rule="evenodd">
        <g id="bg">
            <path d="M515.5,215.5 L649.5,231.45 M594.5,541 L496.5,469.5 L391,431 L285.5,370 L151,400.5 L278.5,483 L194.25,540.75 L151,400.5 L32.5,347.5 L182,292 L115.5,215.5 L194.25,140.75 L96.5,69.5" id="Shape" stroke="#222222" stroke-width="0.5"></path>
            <path d="M115.5,215.5 L249.5,231.5 L326,292 L432.5,347.5 L285.25,369.75 L181.75,291.75 M316,553.5 L278.5,483" id="Shape" stroke="#222222" stroke-width="0.5"></path>
            <polyline id="Path" stroke="#222222" stroke-width="0.5" points="391 431 420 522 496.5 469.5 551 400.5 432.5 347.5 391 431 278.5 483 285.5 370 326 292 400.5 235.5 515.5 215.5 419.75 121.75 316 153.5 278.5 83 194.25 140.75 249.5 231.5 182 292 151 400.5 96.5 469.5 194.5 541"></polyline>
            <path d="M391,31 L420.25,122.25 L496.5,69.5 M432.5,347.5 L400.5,235.5 L249.5,231.5 L316,153.5 M582,292 L400.5,235.5 M326,292 L182,292" id="Shape" stroke="#222222" stroke-width="0.5"></path>
            <path d="M20,122 L194.25,140.75 L316,153.5 L400.5,235.5 L419.75,121.75 L594.5,141 L515.5,215.5 L582,292 L432.5,347.5 L496.5,469.5 M278.5,83 L419.75,121.75 M420,522 L278.5,483 M151,0.5 L194.5,141 M182,292 L0.5,235.5" id="Shape" stroke="#222222" stroke-width="0.5"></path>
            <circle id="Oval" fill="#333333" fill-rule="nonzero" cx="515.5" cy="215.5" r="2.5"></circle>
            <circle id="Oval" fill="#333333" fill-rule="nonzero" cx="400.5" cy="235.5" r="2.5"></circle>
            <circle id="Oval" fill="#333333" fill-rule="nonzero" cx="432.5" cy="347.5" r="2.5"></circle>
            <circle id="Oval" fill="#333333" fill-rule="nonzero" cx="496.5" cy="469.5" r="2.5"></circle>
            <circle id="Oval" fill="#333333" fill-rule="nonzero" cx="391" cy="431" r="2.5"></circle>
            <circle id="Oval" fill="#333333" fill-rule="nonzero" cx="285.5" cy="370" r="2.5"></circle>
            <circle id="Oval" fill="#333333" fill-rule="nonzero" cx="278.5" cy="483" r="2.5"></circle>
            <circle id="Oval" fill="#333333" fill-rule="nonzero" cx="151" cy="400.5" r="2.5"></circle>
            <circle id="Oval" fill="#333333" fill-rule="nonzero" cx="182" cy="292" r="2.5"></circle>
            <circle id="Oval" fill="#333333" fill-rule="nonzero" cx="194.5" cy="141" r="2.5"></circle>
            <circle id="Oval" fill="#333333" fill-rule="nonzero" cx="316" cy="153.5" r="2.5"></circle>
            <circle id="Oval" fill="#333333" fill-rule="nonzero" cx="420" cy="122" r="2.5"></circle>
            <circle id="Oval" fill="#333333" fill-rule="nonzero" cx="249.5" cy="231.5" r="2.5"></circle>
            <circle id="Oval" fill="#333333" fill-rule="nonzero" cx="326" cy="292" r="2.5"></circle>
        </g>
    </g>
</svg>