<?xml version="1.0" encoding="UTF-8"?>
<svg width="74px" height="75px" viewBox="0 0 74 75" version="1.1" xmlns="http://www.w3.org/2000/svg" xmlns:xlink="http://www.w3.org/1999/xlink">
    <!-- Generator: Sketch 54.1 (76490) - https://sketchapp.com -->
    <title>logo-1</title>
    <desc>Created with Sketch.</desc>
    <defs>
        <linearGradient x1="50%" y1="0%" x2="50%" y2="100%" id="linearGradient-1">
            <stop stop-color="#FFFFFF" offset="0%"></stop>
            <stop stop-color="#3ABFD4" offset="30.8929374%"></stop>
            <stop stop-color="#01ACC8" offset="72.5741397%"></stop>
            <stop stop-color="#FFFFFF" offset="100%"></stop>
        </linearGradient>
    </defs>
    <g id="Page-1" stroke="none" stroke-width="1" fill="none" fill-rule="evenodd">
        <g id="logo-1" transform="translate(2.000000, 2.000000)" fill-rule="nonzero">
            <g id="Icon-">
                <ellipse id="Oval" stroke="#0C0C0C" stroke-width="3" fill="url(#linearGradient-1)" cx="35.0484541" cy="35.6137517" rx="35.0484541" ry="35.6137517"></ellipse>
                <g id="vdf" transform="translate(6.783572, 19.220120)" fill="#0C0C0C">
                    <polygon id="Path-5" points="11.7515169 25.1873672 7.65457697 25.1873672 -1.30468047e-15 6.63638151 5.26680383 6.63638151 9.64803635 17.0645561 13.988615 6.63638151 18.8267057 6.63638151"></polygon>
                    <path d="M38.5058247,16.2329416 C38.2173515,21.4368386 33.7744476,25.5703287 28.3359389,25.5703287 C22.7110407,25.5703287 18.1511597,21.1486559 18.1511597,15.6942462 C18.1511597,10.2398365 22.7110407,5.81816383 28.3359389,5.81816383 C30.1003457,5.81816383 31.7599614,6.25322938 33.2069203,7.01876438 L33.2069203,0.0720795199 L38.5207182,0.0720795199 L38.5207182,16.2329416 L38.5058247,16.2329416 Z M28.3359389,20.1833746 C31.0261077,20.1833746 33.2069203,18.1735234 33.2069203,15.6942462 C33.2069203,13.2149691 31.0261077,11.2051179 28.3359389,11.2051179 C25.6457702,11.2051179 23.4649575,13.2149691 23.4649575,15.6942462 C23.4649575,18.1735234 25.6457702,20.1833746 28.3359389,20.1833746 Z" id="Combined-Shape"></path>
                    <path d="M45.3046668,8.51164085 L45.3046668,12.4082043 L52.5491446,12.4082043 L52.5491446,17.5976367 L45.3046668,17.5976367 L45.3046668,30.059457 L40.1502829,30.059457 L40.1502829,8.51164085 C40.1502829,7.18608002 40.6365157,5.19800793 43.0970533,2.64526104 C44.0496021,1.65701526 45.7642037,0.689870548 47.2960847,0.245235569 C48.1647217,-0.00689004805 49.7298593,-0.0646087311 51.9914975,0.0720795199 L51.9914975,4.62651101 C50.2061661,4.6668361 49.0202614,4.73796414 48.4337834,4.83989515 C47.8293281,4.94495065 46.9849548,5.69851461 46.4222634,6.25664926 C45.9640824,6.71111988 45.3046668,8.15251058 45.3046668,8.51164085 Z" id="Combined-Shape"></path>
                </g>
            </g>
        </g>
    </g>
</svg>