<?xml version="1.0" encoding="UTF-8"?>
<svg width="72px" height="72px" viewBox="0 0 72 72" version="1.1" xmlns="http://www.w3.org/2000/svg" xmlns:xlink="http://www.w3.org/1999/xlink">
    <!-- Generator: Sketch 54.1 (76490) - https://sketchapp.com -->
    <title>Group</title>
    <desc>Created with Sketch.</desc>
    <g id="Page-1" stroke="none" stroke-width="1" fill="none" fill-rule="evenodd">
        <g id="Group" transform="translate(0.317736, 0.171213)">
            <polygon id="Path-2" fill="#003F77" points="39.2535557 36.3287873 3.55271368e-15 -3.55271368e-15 10.5807545 21.7527017 39.2535557 42.4088315"></polygon>
            <polygon id="Path-3" fill="#0065C2" points="39.2535557 50.5868046 13.3765232 37.2717161 4.74932885 21.2044157 39.2535557 45.316418"></polygon>
            <polygon id="Path-4" fill="#0092FF" points="5.88077423 36.3287873 19.6267778 50.5868046 39.2535557 56.0115906 39.2535557 52.479255"></polygon>
            <path d="M27.8437692,54.5126993 L20.2594735,62.6548101 C23.4542287,62.4638309 25.8131239,61.9680579 27.3361592,61.167491 C28.8591944,60.3669242 30.771217,58.6482907 33.0722268,56.0115906 L27.8437692,54.5126993 Z" id="Path-5" fill="#67B7FF"></path>
            <path d="M26.578657,70.4520077 L34.6593845,56.5342018 L42.1578788,58.5837547 C39.3707462,62.6307752 37.0775855,65.2614484 35.2783968,66.4757743 C33.4792081,67.6901002 30.5792948,69.0155113 26.578657,70.4520077 Z" id="Path-6" fill="#67B7FF"></path>
            <path d="M15.6048724,57.4449637 L20.2594735,52.6547889 L25.3220525,53.8746509 C23.4260658,55.3805284 21.9012551,56.360429 20.7476203,56.8143527 C19.5939855,57.2682765 17.8797362,57.4784801 15.6048724,57.4449637 Z" id="Path-7" fill="#67B7FF"></path>
            <polygon id="Path" stroke="#003F78" fill="#003F77" points="44.1140522 29.3121777 71.1684215 29.3121777 71.1684215 25.4489395 39.2535557 25.4489395 39.2535557 70.4520077 44.1140522 70.4520077 44.1140522 51.4504667 65.123762 51.4504667 65.123762 46.5074071 44.1140522 46.5074071"></polygon>
        </g>
    </g>
</svg>