<?xml version="1.0" encoding="UTF-8"?>
<svg width="266px" height="266px" viewBox="0 0 266 266" version="1.1" xmlns="http://www.w3.org/2000/svg" xmlns:xlink="http://www.w3.org/1999/xlink">
    <!-- Generator: Sketch 54.1 (76490) - https://sketchapp.com -->
    <title>logo</title>
    <desc>Created with Sketch.</desc>
    <defs>
        <path d="M160.421863,3.17813325 C136.21573,34.3830658 98.3926642,54.4847986 55.8447986,54.4847986 C36.2278658,54.4847986 17.6387996,50.1842654 0.894533311,42.5309323 C3.62426658,42.6957323 6.37573317,42.8097323 9.14906644,42.8097323 C44.3902656,42.8097323 76.3878648,29.0059993 100.099331,6.53813317 C105.992664,7.34066648 111.992664,7.78906647 118.106664,7.78906647 C132.97933,7.78906647 147.25813,5.30186653 160.605996,0.773333314 C161.335729,0.525999987 162.070263,0.290933326 162.792663,0.0314666659 C162.016929,1.09333331 161.229063,2.14066661 160.421863,3.17813325 L160.421863,3.17813325 Z" id="path-1"></path>
        <linearGradient x1="15.3489972%" y1="84.6748611%" x2="15.3489972%" y2="-626.43625%" id="linearGradient-3">
            <stop stop-color="#139EB7" offset="0%"></stop>
            <stop stop-color="#2ACDDF" offset="100%"></stop>
        </linearGradient>
        <linearGradient x1="36.2746915%" y1="55.5612811%" x2="24.238424%" y2="54.3130284%" id="linearGradient-4">
            <stop stop-color="#139EB7" offset="0%"></stop>
            <stop stop-color="#2ACDDF" offset="100%"></stop>
        </linearGradient>
        <path d="M98.7951975,210.700661 C98.0726642,210.957595 97.3357309,211.195195 96.6085309,211.442395 C83.2606646,215.968528 68.9818649,218.458128 54.1090653,218.458128 C47.9975988,218.458128 41.995199,218.009728 36.1018658,217.207328 C58.8799985,195.629062 73.9806648,166.050929 76.8993314,132.957597 C77.2509314,129.071463 77.4545314,125.149064 77.4545314,121.17813 C77.4545314,67.7163583 45.7309322,21.6993995 0.0993333308,0.829093313 C69.3235983,5.09090654 124.152664,62.5527318 124.152664,132.84853 C124.149997,161.956396 114.724797,188.853329 98.7951975,210.700661 L98.7951975,210.700661 Z" id="path-5"></path>
        <linearGradient x1="22.0444209%" y1="72.5151389%" x2="22.0444209%" y2="-638.595972%" id="linearGradient-7">
            <stop stop-color="#5A4BC8" offset="0%"></stop>
            <stop stop-color="#AA7AFF" offset="100%"></stop>
        </linearGradient>
        <linearGradient x1="31.9013076%" y1="52.9325386%" x2="31.4346387%" y2="47.9547232%" id="linearGradient-8">
            <stop stop-color="#5A4BC8" offset="0%"></stop>
            <stop stop-color="#AA7AFF" offset="100%"></stop>
        </linearGradient>
        <path d="M0.0290933326,113.89813 C4.33939989,61.3163585 39.3672657,17.4521196 87.1587978,0.300599992 C72.7999982,19.9903062 63.7575717,43.7866656 62.1066651,69.6047983 C37.2775724,78.0242647 15.7696929,93.6023977 0.0290933326,113.89813 Z" id="path-9"></path>
        <linearGradient x1="7.20647175%" y1="47.3693056%" x2="7.20647175%" y2="-663.741806%" id="linearGradient-11">
            <stop stop-color="#139EB7" offset="0%"></stop>
            <stop stop-color="#00BFD4" offset="100%"></stop>
        </linearGradient>
        <linearGradient x1="14.8095876%" y1="47.7705556%" x2="11.9905483%" y2="46.5927561%" id="linearGradient-12">
            <stop stop-color="#139EB7" offset="0%"></stop>
            <stop stop-color="#00BFD4" offset="100%"></stop>
        </linearGradient>
        <path d="M156.118796,121.17573 C156.118796,125.149064 155.915196,129.071463 155.563596,132.955197 C132.198797,95.5175976 90.6593311,70.5866649 43.2726656,70.5866649 C28.3999993,70.5866649 14.1187996,73.0739315 0.773333314,77.6023981 C2.42423994,51.7866654 11.4666664,27.9878793 25.825466,8.29818646 C39.7842657,3.29211992 54.8242653,0.543026653 70.5139982,0.543026653 C73.2873315,0.543026653 76.0290648,0.659399984 78.763598,0.826666646 C124.395197,21.6969728 156.118796,67.7139316 156.118796,121.17573 Z" id="path-13"></path>
        <linearGradient x1="13.7824859%" y1="50.24875%" x2="13.7824859%" y2="-660.862361%" id="linearGradient-15">
            <stop stop-color="#139EB7" offset="0%"></stop>
            <stop stop-color="#2ACDDF" offset="100%"></stop>
        </linearGradient>
        <linearGradient x1="33.8612268%" y1="49.6123186%" x2="22.3121189%" y2="46.5769894%" id="linearGradient-16">
            <stop stop-color="#139EB7" offset="0%"></stop>
            <stop stop-color="#2ACDDF" offset="100%"></stop>
        </linearGradient>
        <path d="M63.4399984,0.27146666 C63.2581851,3.10306659 63.1369718,5.94426652 63.1369718,8.81933311 C63.1369718,75.7818648 112.887331,131.08853 177.432662,139.873997 C153.723596,162.341863 121.725997,176.145462 86.4823978,176.145462 C83.7066646,176.145462 80.957598,176.031462 78.2278647,175.866662 C32.5987859,154.996396 0.875146645,108.976931 0.875146645,55.5151986 C0.875146645,51.8230654 1.06423997,48.1793321 1.35999997,44.5647989 C17.1030262,24.2690661 38.6109057,8.69093312 63.4399984,0.27146666 Z" id="path-17"></path>
        <linearGradient x1="7.15485311%" y1="81.6351042%" x2="7.15485311%" y2="-629.476007%" id="linearGradient-19">
            <stop stop-color="#5A4BC8" offset="0%"></stop>
            <stop stop-color="#AA7AFF" offset="100%"></stop>
        </linearGradient>
        <linearGradient x1="21.1835619%" y1="54.5937711%" x2="9.45754607%" y2="49.2065855%" id="linearGradient-20">
            <stop stop-color="#5A4BC8" offset="0%"></stop>
            <stop stop-color="#AA7AFF" offset="100%"></stop>
        </linearGradient>
    </defs>
    <g id="Page-1" stroke="none" stroke-width="1" fill="none" fill-rule="evenodd">
        <g id="logo" transform="translate(-1.000000, 0.000000)">
            <g id="g284" transform="translate(159.999994, 28.000007) scale(-1, 1) rotate(-180.000000) translate(-159.999994, -28.000007) translate(77.999996, 0.666675)">
                <g id="g286-Clipped">
                    <mask id="mask-2" fill="white">
                        <use xlink:href="#path-1"></use>
                    </mask>
                    <g id="path288"></g>
                    <g id="g286" mask="url(#mask-2)">
                        <g transform="translate(-143.999996, -270.666660)" id="g292">
                            <g>
                                <g id="g298" fill="url(#linearGradient-3)" fill-rule="nonzero">
                                    <polygon id="path306" points="0 0 943.999976 0 943.999976 383.99999 0 383.99999"></polygon>
                                </g>
                                <g id="g308" fill="url(#linearGradient-4)" fill-rule="nonzero">
                                    <polygon id="path316" points="0 0 943.999976 0 943.999976 383.99999 0 383.99999"></polygon>
                                </g>
                            </g>
                        </g>
                    </g>
                </g>
            </g>
            <g id="g318" transform="translate(204.666660, 156.666671) scale(-1, 1) rotate(-180.000000) translate(-204.666660, -156.666671) translate(141.999995, 47.333340)">
                <g id="g320-Clipped">
                    <mask id="mask-6" fill="white">
                        <use xlink:href="#path-5"></use>
                    </mask>
                    <g id="path322"></g>
                    <g id="g320" mask="url(#mask-6)">
                        <g transform="translate(-207.999995, -59.999999)" id="g326">
                            <g>
                                <g id="g332" fill="url(#linearGradient-7)" fill-rule="nonzero">
                                    <polygon id="path340" points="0 0 943.999976 0 943.999976 383.99999 0 383.99999"></polygon>
                                </g>
                                <g id="g342" fill="url(#linearGradient-8)" fill-rule="nonzero">
                                    <polygon id="path350" points="0 0 943.999976 0 943.999976 383.99999 0 383.99999"></polygon>
                                </g>
                            </g>
                        </g>
                    </g>
                </g>
            </g>
            <g id="g352" transform="translate(45.999997, 200.666670) scale(-1, 1) rotate(-180.000000) translate(-45.999997, -200.666670) translate(1.999998, 143.333338)">
                <g id="g354-Clipped">
                    <mask id="mask-10" fill="white">
                        <use xlink:href="#path-9"></use>
                    </mask>
                    <g id="path356"></g>
                    <g id="g354" mask="url(#mask-10)">
                        <g transform="translate(-67.999998, -67.999998)" id="g360">
                            <g>
                                <g id="g366" fill="url(#linearGradient-11)" fill-rule="nonzero">
                                    <polygon id="path374" points="0 0 943.999976 0 943.999976 383.99999 0 383.99999"></polygon>
                                </g>
                                <g id="g376" fill="url(#linearGradient-12)" fill-rule="nonzero">
                                    <polygon id="path384" points="0 0 943.999976 0 943.999976 383.99999 0 383.99999"></polygon>
                                </g>
                            </g>
                        </g>
                    </g>
                </g>
            </g>
            <g id="g386" transform="translate(141.999995, 199.333336) scale(-1, 1) rotate(-180.000000) translate(-141.999995, -199.333336) translate(63.333330, 132.666671)">
                <g id="g388-Clipped">
                    <mask id="mask-14" fill="white">
                        <use xlink:href="#path-13"></use>
                    </mask>
                    <g id="path390"></g>
                    <g id="g388" mask="url(#mask-14)">
                        <g transform="translate(-129.333330, -59.999998)" id="g394">
                            <g>
                                <g id="g400" fill="url(#linearGradient-15)" fill-rule="nonzero">
                                    <polygon id="path408" points="0 0 943.999976 0 943.999976 383.99999 0 383.99999"></polygon>
                                </g>
                                <g id="g410" fill="url(#linearGradient-16)" fill-rule="nonzero">
                                    <polygon id="path418" points="0 0 943.999976 0 943.999976 383.99999 0 383.99999"></polygon>
                                </g>
                            </g>
                        </g>
                    </g>
                </g>
            </g>
            <g id="g420" transform="translate(89.999996, 100.000006) scale(-1, 1) rotate(-180.000000) translate(-89.999996, -100.000006) translate(0.666665, 11.333341)">
                <g id="g422-Clipped">
                    <mask id="mask-18" fill="white">
                        <use xlink:href="#path-17"></use>
                    </mask>
                    <g id="path424"></g>
                    <g id="g422" mask="url(#mask-18)">
                        <g transform="translate(-66.666665, -137.333330)" id="g428">
                            <g>
                                <g id="g434" fill="url(#linearGradient-19)" fill-rule="nonzero">
                                    <polygon id="path442" points="0 0 943.999976 0 943.999976 383.99999 0 383.99999"></polygon>
                                </g>
                                <g id="g444" fill="url(#linearGradient-20)" fill-rule="nonzero">
                                    <polygon id="path452" points="0 0 943.999976 0 943.999976 383.99999 0 383.99999"></polygon>
                                </g>
                            </g>
                        </g>
                    </g>
                </g>
            </g>
        </g>
    </g>
</svg>